<svg xmlns="http://www.w3.org/2000/svg" width="237" height="237" fill="none" viewBox="0 0 237 237"><g clip-path="url(#a)"><path fill="#1f262a" d="M212 0H25C11.193 0 0 11.193 0 25v187c0 13.807 11.193 25 25 25h187c13.807 0 25-11.193 25-25V25c0-13.807-11.193-25-25-25"/><path fill="#1f262a" d="M95 110c5.523 0 10-4.477 10-10s-4.477-10-10-10-10 4.477-10 10 4.477 10 10 10" opacity=".3"/><path fill="#fff" d="m109.8 66.774 3.625-4.826A4.84 4.84 0 0 1 117.299 60c2.651 0 4.826 2.175 4.826 4.826v5.03c0 2.967 1.223 5.822 3.376 7.861l19.19 18.306A55.99 55.99 0 0 1 162 136.51c0 21.818-17.672 39.49-39.49 39.49h-4.01C94.484 176 75 156.516 75 132.5v-.861a41.7 41.7 0 0 1 12.212-29.476l.793-.793a5.15 5.15 0 0 1 3.625-1.495 5.115 5.115 0 0 1 5.12 5.12v20.255c0 7.998 6.502 14.5 14.5 14.5s14.5-6.502 14.5-14.5v-.884a15.4 15.4 0 0 0-4.509-10.875l-8.745-8.745A29.09 29.09 0 0 1 104 84.196a29.06 29.06 0 0 1 5.8-17.422"/></g><defs><clipPath id="a"><path fill="#fff" d="M0 0h237v237H0z"/></clipPath></defs></svg>